<svg width="48" height="48" viewBox="6.5 6.5 779 779" fill="none" xmlns="http://www.w3.org/2000/svg">
<circle cx="396" cy="396" r="389.5" fill="#368727"/>
<path fill="#fff" d="M243.6,483.2l-1.1-.9v97.5l.3.2c27.3,16.7,65.8,29.1,105.7,33.8h.7c0,0,0-76.8,0-76.8h-.5c-26.8-5.7-68.4-22.8-105.1-53.9Z"/>
<path fill="#fff" d="M522.2,404c-17.7-18.3-45.1-33-83.9-45.1l-.9-.3v86.3c13.4,10.5,19.4,27.9,17.7,45.7-1.9,20.3-14.1,36.2-37.6,44.8V253.3c4.5-.2,18.3,1.8,20.7,2.3,34,7,69.6,23.2,98.9,44l1,.7v-89.6l-.3-.2c-31.6-18.9-66-30.6-102.4-34.7-2.3-.3-15-1.2-17.9-1.5v-46.1h-48.5v.7c0,2,0,199.1,0,213.8-22.7-7.2-32-15.8-36.5-32.1-3.2-11.5,2.9-33.1,16.3-40.3l.3-.2v-89.8l-.8.2c-30.7,7.6-56.5,21.8-74.5,41.1-20,21.4-30.2,48.2-30.2,79.4,0,60,33.2,96.9,107.8,119.6,2.3.7,15,4.7,17.6,5.5v237.8h48.5v-50.3c2.8-.5,15.3-2.9,17.7-3.5,33.1-8,61-23.4,80.8-44.5,22.2-23.7,33.4-53.4,33.4-88.3s-8.9-54.2-27.3-73.2Z"/>
</svg>
