<svg width="64" height="64" viewBox="0 0 64 64" fill="none" xmlns="http://www.w3.org/2000/svg">
<circle cx="32" cy="32" r="32" fill="#0A1348"/>
<g clip-path="url(#clip0_2238_7178)">
<path d="M25.6969 31.5936L15 14.8824L25.7318 14.847L32.0697 25.4252L38.4862 13.9191L48.4508 13.8838L37.2308 32.4419L38.739 33.9272L39.4713 35.4289L39.6108 35.4996L49.1569 49.9484L37.0041 50.0191L31.8344 40.2275C32.2195 37.1276 24.8164 33.5289 24.8164 33.5289L25.6969 31.5936Z" fill="#FEFFFE"/>
<path d="M14.2157 14.4138L25.8455 14.3696L37.5537 32.1324L25.2352 49.9836L13.6055 50.0278L25.2003 32.1766L14.2157 14.4138Z" fill="url(#paint0_linear_2238_7178)"/>
<path d="M14.2148 14.4138L25.8446 14.3696L37.5528 32.1324L25.2343 32.1766L14.2148 14.4138Z" fill="url(#paint1_linear_2238_7178)"/>
<path d="M25.2864 32.1765L37.6048 32.1323L31.4413 41.217L19.8115 41.2612L25.2864 32.1765Z" fill="url(#paint2_linear_2238_7178)"/>
<path d="M19.7945 41.1907L31.4242 41.1465L25.2606 49.9218L13.6309 49.966L19.7945 41.1907Z" fill="url(#paint3_linear_2238_7178)"/>
</g>
<defs>
<linearGradient id="paint0_linear_2238_7178" x1="25.5491" y1="14.3254" x2="25.5491" y2="50.0278" gradientUnits="userSpaceOnUse">
<stop stop-color="#00F0E3"/>
<stop offset="1" stop-color="#B73A9B"/>
</linearGradient>
<linearGradient id="paint1_linear_2238_7178" x1="25.8969" y1="14.3254" x2="25.8969" y2="32.1766" gradientUnits="userSpaceOnUse">
<stop stop-color="#00F0E3"/>
<stop offset="1" stop-color="#186D9F"/>
</linearGradient>
<linearGradient id="paint2_linear_2238_7178" x1="28.6864" y1="32.0881" x2="28.6864" y2="41.1905" gradientUnits="userSpaceOnUse">
<stop stop-color="#376BA2"/>
<stop offset="1" stop-color="#564C99"/>
</linearGradient>
<linearGradient id="paint3_linear_2238_7178" x1="22.497" y1="41.1907" x2="22.497" y2="50.0279" gradientUnits="userSpaceOnUse">
<stop stop-color="#824492"/>
<stop offset="1" stop-color="#B73A9B"/>
</linearGradient>
<clipPath id="clip0_2238_7178">
<rect width="34" height="38" fill="white" transform="translate(15 13)"/>
</clipPath>
</defs>
</svg>
