<svg width="48" height="48" viewBox="0 0 48 48" fill="none" xmlns="http://www.w3.org/2000/svg">
<path d="M23.9991 0.85791H24.0001C36.7808 0.857922 47.1417 11.2188 47.1417 23.9996V24.0006C47.1417 36.7813 36.7808 47.1421 24.0001 47.1423H23.9991C11.2183 47.1421 0.857434 36.7813 0.857422 24.0006V23.9996C0.85744 11.2188 11.2183 0.857927 23.9991 0.85791Z" fill="white"/>
<path d="M46.7153 23.9994C46.7153 11.4541 36.5453 1.28395 24 1.28394H23.999C11.4537 1.28396 1.28359 11.4541 1.28357 23.9994V24.0004C1.28358 36.5456 11.4537 46.7157 23.999 46.7158H24C36.5453 46.7157 46.7153 36.5456 46.7153 24.0004V23.9994ZM47.5679 24.0004C47.5679 37.0165 37.0161 47.5682 24 47.5684H23.999C10.9829 47.5682 0.431165 37.0165 0.431152 24.0004V23.9994C0.431171 10.9832 10.9829 0.43154 23.999 0.431519H24C37.0161 0.431531 47.5679 10.9832 47.5679 23.9994V24.0004Z" fill="#111111"/>
<path d="M24.0005 0.431519H23.9995C10.9834 0.431519 0.431641 10.9832 0.431641 23.9994V24.0004C0.431641 37.0165 10.9834 47.5682 23.9995 47.5682H24.0005C37.0166 47.5682 47.5684 37.0165 47.5684 24.0004V23.9994C47.5684 10.9832 37.0166 0.431519 24.0005 0.431519Z" fill="url(#paint0_radial_8966_44)" fill-opacity="0.7"/>
<path d="M47.1367 23.9995C47.1367 11.2218 36.7782 0.863276 24.0005 0.863276H23.9995C11.2217 0.863281 0.863276 11.2218 0.863276 23.9995V24.0005C0.863276 36.7782 11.2217 47.1367 23.9995 47.1367H24.0005C36.7782 47.1367 47.1367 36.7782 47.1367 24.0005V23.9995ZM48 24.0005C48 37.255 37.255 48 24.0005 48H23.9995C10.745 48 0 37.255 0 24.0005V23.9995C0 10.745 10.745 4.98357e-06 23.9995 0H24.0005C37.255 0 48 10.745 48 23.9995V24.0005Z" fill="url(#paint1_linear_8966_44)"/>
<path d="M6.43878 27.8668C7.91683 34.7349 13.3309 40.1397 20.2038 41.605V43.4545C12.328 41.9375 6.11927 35.7379 4.58876 27.8668H6.43878ZM43.3276 27.8668C41.7993 35.7265 35.6063 41.9196 27.7464 43.4479V41.5978C34.6032 40.1222 40.002 34.7236 41.4776 27.8668H43.3276ZM27.7464 4.70888C35.6175 6.23935 41.8172 12.4481 43.3343 20.3241H41.4847C40.0195 13.4512 34.6145 8.03704 27.7464 6.55901V4.70888ZM20.2038 6.55193C13.3197 8.01945 7.89924 13.4399 6.4317 20.3241H4.58203C6.1013 12.4369 12.3166 6.22151 20.2038 4.70227V6.55193Z" fill="black"/>
<path d="M26.7698 23.4193C28.2754 23.7062 29.4432 24.2595 30.2733 25.0795C31.1033 25.8788 31.5183 26.9036 31.5183 28.1539V30.1215C31.5183 31.6177 30.9778 32.8269 29.8968 33.7494C28.8159 34.6511 27.3971 35.1021 25.6406 35.1021H25.0325V38.238H22.9478V35.1021H22.3108C21.1527 35.1021 20.1296 34.8458 19.2416 34.3335C18.3537 33.8006 17.6588 33.0628 17.157 32.1199C16.6743 31.1566 16.4331 30.0497 16.4331 28.7995H18.5178C18.5178 30.0703 18.8652 31.1054 19.5602 31.9046C20.2744 32.6835 21.2106 33.0729 22.3687 33.0729H25.5827C26.7215 33.0729 27.6385 32.8065 28.3333 32.2736C29.0283 31.7202 29.3756 31.0029 29.3756 30.1215V28.1539C29.3756 27.457 29.1151 26.8626 28.5939 26.3707C28.0921 25.8788 27.3971 25.5611 26.5092 25.4177L21.2974 24.4954C19.8305 24.2288 18.6916 23.6754 17.8808 22.835C17.0701 21.9948 16.6647 20.9392 16.6647 19.6684V18.0082C16.6647 16.5121 17.186 15.3233 18.2283 14.4419C19.29 13.54 20.6894 13.0892 22.4266 13.0892H22.9478V9.95325H25.0325V13.0892H25.6985C27.3392 13.0892 28.6615 13.6221 29.6652 14.6879C30.669 15.7332 31.1708 17.1166 31.1708 18.8383H29.0862C29.0862 17.711 28.7772 16.8093 28.1596 16.1328C27.5419 15.4565 26.7215 15.1183 25.6985 15.1183H22.4266C21.3264 15.1183 20.4481 15.3848 19.7918 15.9177C19.1355 16.43 18.8073 17.1269 18.8073 18.0082V19.6684C18.8073 20.3858 19.0486 20.9904 19.5312 21.4823C20.0331 21.9743 20.7183 22.3022 21.587 22.4662L26.7698 23.4193Z" fill="black"/>
<defs>
<radialGradient id="paint0_radial_8966_44" cx="0" cy="0" r="1" gradientUnits="userSpaceOnUse" gradientTransform="translate(24.0507 7.31409) rotate(90) scale(49.6924 34.9785)">
<stop offset="0.03125" stop-color="#FAFAFA"/>
<stop offset="1" stop-color="#E3E3E3"/>
</radialGradient>
<linearGradient id="paint1_linear_8966_44" x1="24" y1="-0.0130524" x2="24" y2="48.013" gradientUnits="userSpaceOnUse">
<stop stop-color="#F4F4F4"/>
<stop offset="1" stop-color="#BEBEBE"/>
</linearGradient>
</defs>
</svg>
